<svg xmlns="http://www.w3.org/2000/svg" width="800" height="500" viewBox="0 0 800 500">
<rect width="800" height="500" rx="34" fill="#f1e9da"/><circle cx="609" cy="264" r="8" fill="#545d48" opacity="0.10"/><circle cx="714" cy="302" r="12" fill="#545d48" opacity="0.10"/><circle cx="484" cy="361" r="16" fill="#545d48" opacity="0.10"/><circle cx="618" cy="252" r="8" fill="#545d48" opacity="0.10"/><circle cx="147" cy="170" r="12" fill="#545d48" opacity="0.10"/><circle cx="250" cy="90" r="16" fill="#545d48" opacity="0.10"/><circle cx="101" cy="85" r="8" fill="#545d48" opacity="0.10"/>
<rect x="52" y="42" width="92" height="54" rx="27" fill="#ffffff" opacity="0.84"/><text x="98" y="78" text-anchor="middle" font-size="28">🇩🇪</text>
<ellipse cx="400" cy="335" rx="190" ry="62" fill="#7b5135"/><path d="M300 315 L330 205 L500 230 L520 320Z" fill="#e3b071"/><path d="M330 205 L500 230 L480 260 L320 240Z" fill="#d3a93b"/><circle cx="420" cy="215" r="16" fill="#f4eee1"/>
<rect x="70" y="395" width="660" height="70" rx="24" fill="#ffffff" opacity="0.90"/>
<text x="400" y="438" text-anchor="middle" font-family="sans-serif" font-size="30" font-weight="700" fill="#252525">Gâteau aux pommes</text>
</svg>