<svg xmlns="http://www.w3.org/2000/svg" width="800" height="500" viewBox="0 0 800 500">
<rect width="800" height="500" rx="34" fill="#f4ead7"/><circle cx="646" cy="151" r="8" fill="#efc85b" opacity="0.10"/><circle cx="475" cy="332" r="12" fill="#efc85b" opacity="0.10"/><circle cx="291" cy="287" r="16" fill="#efc85b" opacity="0.10"/><circle cx="431" cy="172" r="8" fill="#efc85b" opacity="0.10"/><circle cx="367" cy="184" r="12" fill="#efc85b" opacity="0.10"/><circle cx="278" cy="91" r="16" fill="#efc85b" opacity="0.10"/><circle cx="104" cy="85" r="8" fill="#efc85b" opacity="0.10"/>
<rect x="52" y="42" width="92" height="54" rx="27" fill="#ffffff" opacity="0.84"/><text x="98" y="78" text-anchor="middle" font-size="28">🇮🇹</text>
<ellipse cx="400" cy="315" rx="205" ry="78" fill="#c94a44"/><path d="M285 285 C330 220 370 350 415 265 S500 330 525 260" fill="none" stroke="#efcc69" stroke-width="28" stroke-linecap="round"/><circle cx="355" cy="270" r="18" fill="#4e8a57"/><circle cx="455" cy="300" r="16" fill="#6d9654"/>
<rect x="70" y="395" width="660" height="70" rx="24" fill="#ffffff" opacity="0.90"/>
<text x="400" y="438" text-anchor="middle" font-family="sans-serif" font-size="30" font-weight="700" fill="#252525">Pasta e fagioli</text>
</svg>