<svg xmlns="http://www.w3.org/2000/svg" width="800" height="500" viewBox="0 0 800 500">
<rect width="800" height="500" rx="34" fill="#f1e9da"/><circle cx="578" cy="333" r="8" fill="#545d48" opacity="0.10"/><circle cx="548" cy="119" r="12" fill="#545d48" opacity="0.10"/><circle cx="463" cy="143" r="16" fill="#545d48" opacity="0.10"/><circle cx="209" cy="182" r="8" fill="#545d48" opacity="0.10"/><circle cx="177" cy="334" r="12" fill="#545d48" opacity="0.10"/><circle cx="579" cy="100" r="16" fill="#545d48" opacity="0.10"/><circle cx="142" cy="85" r="8" fill="#545d48" opacity="0.10"/>
<rect x="52" y="42" width="92" height="54" rx="27" fill="#ffffff" opacity="0.84"/><text x="98" y="78" text-anchor="middle" font-size="28">🇩🇪</text>
<ellipse cx="400" cy="265" rx="180" ry="72" fill="#545d48"/><path d="M220 260 Q400 430 580 260" fill="#7b5135"/><ellipse cx="400" cy="260" rx="145" ry="48" fill="#d3a93b"/><circle cx="350" cy="250" r="18" fill="#f7e2a1"/><circle cx="430" cy="270" r="16" fill="#7b9d54"/><circle cx="475" cy="245" r="13" fill="#c95b44"/>
<rect x="70" y="395" width="660" height="70" rx="24" fill="#ffffff" opacity="0.90"/>
<text x="400" y="438" text-anchor="middle" font-family="sans-serif" font-size="30" font-weight="700" fill="#252525">Soupe poireaux viande</text>
</svg>